<mxfile host="65bd71144e">
    <diagram id="pVkbOO5-647H5yfgejyU" name="Page-1">
        <mxGraphModel dx="443" dy="418" grid="1" gridSize="10" guides="1" tooltips="1" connect="1" arrows="1" fold="1" page="1" pageScale="1" pageWidth="850" pageHeight="1100" math="0" shadow="0">
            <root>
                <mxCell id="0"/>
                <mxCell id="1" parent="0"/>
                <mxCell id="2" value="" style="rounded=0;whiteSpace=wrap;html=1;strokeWidth=5;fillColor=#1D1D1D;" vertex="1" parent="1">
                    <mxGeometry x="55" y="170" width="170" height="50" as="geometry"/>
                </mxCell>
                <mxCell id="6" style="edgeStyle=none;html=1;entryX=0.5;entryY=0;entryDx=0;entryDy=0;" edge="1" parent="1" source="5" target="2">
                    <mxGeometry relative="1" as="geometry"/>
                </mxCell>
                <mxCell id="5" value="inボタン入力" style="ellipse;whiteSpace=wrap;html=1;strokeColor=#F0F0F0;strokeWidth=5;fillColor=#1D1D1D;" vertex="1" parent="1">
                    <mxGeometry x="80" y="20" width="120" height="80" as="geometry"/>
                </mxCell>
            </root>
        </mxGraphModel>
    </diagram>
</mxfile>